<?xml version="1.0" standalone="no"?>
<!DOCTYPE svg PUBLIC "-//W3C//DTD SVG 20010904//EN"
 "http://www.w3.org/TR/2001/REC-SVG-20010904/DTD/svg10.dtd">
<svg version="1.0" xmlns="http://www.w3.org/2000/svg"
 width="300.000000pt" height="300.000000pt" viewBox="0 0 300.000000 300.000000"
 preserveAspectRatio="xMidYMid meet">
<metadata>
Created by potrace 1.10, written by Peter Selinger 2001-2011
</metadata>
<g transform="translate(0.000000,300.000000) scale(0.100000,-0.100000)"
 stroke="none" c>
<path d="M1525 2563 c-38 -9 -87 -56 -107 -101 -25 -56 -19 -102 21 -159 30
-42 30 -43 10 -53 -11 -6 -24 -22 -29 -35 l-9 -24 -268 -3 c-253 -3 -270 -4
-308 -25 -54 -29 -109 -88 -134 -143 -20 -43 -21 -64 -21 -523 0 -457 1 -479
20 -520 32 -67 76 -113 135 -143 l55 -26 0 -49 c0 -42 -3 -50 -28 -65 -35 -20
-49 -41 -57 -85 -7 -40 24 -95 65 -116 20 -10 183 -12 753 -10 l729 2 29 33
c54 60 28 168 -46 186 -22 6 -25 12 -25 51 0 38 3 45 20 45 20 0 20 7 20 695
l0 695 -300 0 -300 0 -10 26 c-6 14 -23 31 -39 37 l-29 11 28 35 c33 42 43 91
31 144 -20 84 -118 141 -206 120z m125 -82 c52 -52 52 -113 -2 -163 -53 -50
-144 -35 -177 29 -21 42 -14 98 18 132 25 27 36 31 81 31 43 0 56 -4 80 -29z
m522 -516 l-4 -35 -639 0 -639 0 0 35 0 35 643 0 643 0 -4 -35z m-2 -160 l0
-35 -640 0 -640 0 0 35 0 35 640 0 640 0 0 -35z m2 -170 l-4 -35 -639 0 -639
0 0 35 0 35 643 0 643 0 -4 -35z m0 -180 l-4 -35 -639 0 -639 0 0 35 0 35 643
0 643 0 -4 -35z m-2 -185 l0 -30 -640 0 -640 0 0 30 0 30 640 0 640 0 0 -30z
m2 -180 l5 -30 -644 0 -643 0 0 30 0 30 639 0 639 0 4 -30z"/>
<path d="M2422 1498 l3 -693 85 -3 c185 -7 294 46 352 173 23 50 23 54 26 503
3 491 1 512 -53 593 -29 45 -96 93 -150 108 -22 6 -91 11 -153 11 l-112 0 2
-692z"/>
<path d="M549 2043 c-60 -37 -59 -28 -59 -535 0 -350 3 -469 13 -488 15 -29
72 -70 98 -70 18 0 19 21 19 555 l0 555 -22 0 c-13 0 -35 -8 -49 -17z"/>
<path d="M362 1658 c-7 -7 -12 -18 -12 -25 0 -10 -32 -13 -139 -13 -169 0
-171 -1 -171 -99 0 -99 4 -101 173 -101 130 0 137 -1 137 -20 0 -26 43 -54 70
-45 31 10 40 45 40 163 0 81 -4 113 -16 130 -17 24 -62 30 -82 10z"/>
</g>
</svg>
